<?xml version="1.0" encoding="UTF-8"?>
<svg id="LOGO_R_C_NOIR" data-name="LOGO R&amp;amp;C NOIR" xmlns="http://www.w3.org/2000/svg" xmlns:xlink="http://www.w3.org/1999/xlink" viewBox="50 270 510 260">
  <defs>
    <style>
      .cls-1 {
        fill: #ffffff;
      }

      .cls-2 {
        fill: url(#Dégradé_sans_nom_41);
      }

      .cls-3 {
        fill: url(#Dégradé_sans_nom_21);
      }
    </style>
    <linearGradient id="Dégradé_sans_nom_21" data-name="Dégradé sans nom 21" x1="57.86" y1="464.82" x2="381.17" y2="464.82" gradientUnits="userSpaceOnUse">
      <stop offset="0" stop-color="#f0821c"/>
      <stop offset="1" stop-color="#efda1f"/>
    </linearGradient>
    <linearGradient id="Dégradé_sans_nom_41" data-name="Dégradé sans nom 41" x1="88.27" y1="480.87" x2="544.86" y2="480.87" gradientUnits="userSpaceOnUse">
      <stop offset="0" stop-color="#5c5c5c"/>
      <stop offset="1" stop-color="#bfbebe"/>
    </linearGradient>
  </defs>
  <path class="cls-1" d="M170.94,358.13c-.6.6.3,1.2.6.9,31.41-17.95,77.78-45.47,108.59-57.74,41.88-16.15,62.82-14.36,67.31,4.79,4.79,19.44-8.97,47.56-48.76,63.42-36.79,14.36-96.03,15.26-129.23-4.49,6.88,11.67,16.45,27.52,29.62,40.98,29.02,30.21,68.8,26.03,106.8,12.27,1.79-.9,2.69-.9,2.99.3.3.6.3,1.5-2.09,2.39-36.5,14.06-86.16,26.03-119.06-7.48-15.85-16.15-27.22-34.7-30.51-41.88-15.26,14.06-37.99,33.8-54.15,60.73-2.39,3.59-4.19,2.09-5.98,0-4.49-4.79-7.18-8.08-4.49-12.27,20.04-30.81,71.5-76.28,93.33-94.23,25.13-20.64,34.7-27.52,30.21-31.41-5.08-4.19-21.24,1.79-73.59,32.31-30.81,17.95-48.76,22.14-70.9,19.74-14.36-1.2-31.41-15.26-36.79-35.3-.3-1.5-.3-2.39.3-2.39.9-.3,1.5.6,1.79,1.79,7.78,16.75,19.44,24.83,36.5,25.43,18.85.9,36.2-3.29,64.32-16.15,54.45-25.43,74.79-35.3,84.06-28.42,10.47,7.48,11.37,15.56-24.23,44.57-8.67,7.48-17.95,14.96-26.62,22.14ZM171.53,362.62c33.21,17.05,88.25,11.07,122.35-4.49,31.71-14.66,44.27-34.4,40.68-49.66-2.99-11.97-16.15-17.95-52.95-3.59-29.02,11.07-75.38,37.99-110.09,57.74Z"/>
  <path class="cls-1" d="M423.96,435.91c-28.12,1.5-53.85-5.98-61.03-27.52-10.77-33.21,14.66-65.21,41.58-85.26,29.62-22.14,70-33.5,111.58-33.21,41.28.6,48.76,22.14,33.5,41.88-19.74,24.83-64.92,35.3-84.36,25.13-16.75-8.68-6.58-24.83-1.2-28.72,1.5-1.5,2.69,0,1.5,1.2-3.89,4.49-11.37,15.56,1.5,22.14,17.05,8.08,57.14-5.09,71.8-25.73,12.56-17.05,6.28-30.51-23.33-31.41-38.89-.9-75.09,17.95-101.41,37.69-23.63,17.95-44.57,47.27-37.09,72.69,5.09,17.65,25.13,24.53,47.56,24.83,29.92,0,62.52-10.77,77.48-22.44,2.39-2.09,3.59-2.69,4.49-1.79.9,1.2,0,2.69-1.79,4.49-15.56,12.86-47.56,23.93-80.77,26.03Z"/>
  <path class="cls-1" d="M355.6,422.29l8.59,11.32-3.67,3.25-8.28-10.9c-7.23,7.02-16.03,10.37-25.88,10.37-13.1,0-21.38-6.5-21.38-16.35s6.6-16.66,23.68-25.15l-.1-.1c-3.98-5.34-6.29-10.06-6.29-15.19,0-10.79,7.86-17.5,19.38-17.5,9.01,0,14.98,4.82,14.98,12.26,0,8.91-5.87,14.25-20.96,21.69l17.18,22.74c3.25-4.09,6.08-9.12,8.38-15.09l4.19,1.36c-2.72,6.92-5.97,12.68-9.85,17.29ZM349.63,422.39l-18.44-24.21c-15.82,7.86-20.96,13.31-20.96,21.17,0,7.44,6.08,12.57,16.45,12.57,8.59,0,16.45-3.14,22.95-9.54ZM333.07,392.53l.1.1c14.46-7.02,18.86-11.11,18.86-18.02,0-4.71-3.77-8.49-10.58-8.49-8.59,0-14.25,5.03-14.25,12.89,0,4.09,1.89,8.28,5.87,13.52Z"/>
  <g>
    <path class="cls-1" d="M229.19,507.31h-15.86l-3.42,7.6h-3.13l13.01-28.46h2.97l13.01,28.46h-3.17l-3.42-7.6ZM228.09,504.87l-6.83-15.29-6.83,15.29h13.66Z"/>
    <path class="cls-1" d="M253.63,486.45h11.59c9.11,0,15.25,5.86,15.25,14.23s-6.14,14.23-15.25,14.23h-11.59v-28.46ZM265.05,512.31c7.56,0,12.44-4.8,12.44-11.63s-4.88-11.63-12.44-11.63h-8.42v23.26h8.42Z"/>
    <path class="cls-1" d="M323.16,486.45l-12.61,28.46h-2.97l-12.61-28.46h3.25l10.9,24.72,10.98-24.72h3.05Z"/>
    <path class="cls-1" d="M340.39,486.45h3.01v28.46h-3.01v-28.46Z"/>
    <path class="cls-1" d="M363.08,511.45l1.18-2.32c2.03,1.99,5.65,3.46,9.39,3.46,5.33,0,7.64-2.24,7.64-5.04,0-7.81-17.53-3.01-17.53-13.54,0-4.19,3.25-7.81,10.49-7.81,3.21,0,6.55.93,8.82,2.52l-1.02,2.4c-2.44-1.59-5.29-2.36-7.81-2.36-5.21,0-7.52,2.32-7.52,5.16,0,7.81,17.53,3.09,17.53,13.46,0,4.19-3.33,7.77-10.61,7.77-4.27,0-8.46-1.5-10.57-3.7Z"/>
    <path class="cls-1" d="M401.42,500.68c0-8.3,6.34-14.48,14.96-14.48s14.92,6.14,14.92,14.48-6.38,14.48-14.92,14.48-14.96-6.18-14.96-14.48ZM428.3,500.68c0-6.79-5.08-11.79-11.92-11.79s-12,5-12,11.79,5.12,11.79,12,11.79,11.92-5,11.92-11.79Z"/>
    <path class="cls-1" d="M470.63,514.91l-6.51-9.15c-.73.08-1.46.12-2.28.12h-7.65v9.03h-3.01v-28.46h10.65c7.24,0,11.63,3.66,11.63,9.76,0,4.47-2.36,7.6-6.51,8.95l6.95,9.76h-3.29ZM470.47,496.2c0-4.55-3.01-7.16-8.7-7.16h-7.56v14.27h7.56c5.69,0,8.7-2.64,8.7-7.12Z"/>
    <path class="cls-1" d="M503.07,505.07v9.84h-2.97v-9.84l-11.39-18.62h3.21l9.76,15.98,9.76-15.98h3.01l-11.39,18.62Z"/>
  </g>
  <path class="cls-3" d="M57.86,461.92l25.47,19.57s96.58-31.06,297.83-29.6c-214.33-12.4-323.3,10.03-323.3,10.03Z"/>
  <path class="cls-2" d="M88.27,488.02l24.87,18.92s124.95-74.51,431.72-40.06c-121.71-15.42-310.42-23.06-456.59,21.14Z"/>
</svg>